<svg width="454" height="166" viewBox="0 0 454 166" fill="none" xmlns="http://www.w3.org/2000/svg">
<path d="M107.62 101.539C107.62 111.238 99.7568 119.101 90.0573 119.101H77.9412C77.4396 119.083 76.9473 119.074 76.462 119.074C66.9391 119.074 60.3855 122.391 56.5208 126.861C52.6563 122.391 46.1036 119.074 36.5803 119.074C36.0953 119.074 35.6016 119.083 35.1011 119.101H22.9844C13.2854 119.101 5.42188 111.238 5.42188 101.539V5.42188H56.5208H107.62V101.539ZM107.62 -0.000789641H5.42188C2.42812 -0.000789641 0 2.42722 0 5.42188V101.539C0 114.213 10.3109 124.523 22.9844 124.523H35.1011C35.164 124.523 35.2276 124.522 35.2907 124.519C35.7235 124.505 36.1573 124.497 36.5807 124.497C45.4469 124.497 50.088 127.711 52.4193 130.407C53.4495 131.599 54.9464 132.283 56.5208 132.283C58.0959 132.283 59.5927 131.599 60.6224 130.407C62.9541 127.711 67.5953 124.497 76.462 124.497C76.8844 124.497 77.3177 124.505 77.7511 124.519C77.814 124.522 77.8776 124.523 77.9412 124.523H90.0573C102.731 124.523 113.042 114.213 113.042 101.539V5.42188C113.042 2.42722 110.614 -0.000789641 107.62 -0.000789641" fill="#C1232E"/>
<path d="M65.0729 103.59H80.0354V107.322H32.6406V103.59H47.603C49.062 103.59 50.2494 102.402 50.2494 100.943V97.9819C50.9584 98.1059 51.6729 98.2139 52.3926 98.2966C53.777 98.4552 55.1734 98.5366 56.5464 98.5366C56.551 98.5366 56.5552 98.5366 56.5609 98.5366C58.5562 98.5366 60.514 98.3646 62.4265 98.0512V100.943C62.4265 102.402 63.614 103.59 65.0729 103.59V103.59ZM45.1317 58.8726L43.3448 57.0859L41.5568 55.2979L75.3645 21.4899L78.9396 25.0659L45.1317 58.8726ZM35.1677 55.2979C35.1677 55.9032 35.3797 56.4699 35.7526 56.9379L34.0817 58.6086C33.0494 59.6406 33.0494 61.3206 34.0817 62.3526L38.0765 66.3472C38.5765 66.8472 39.2412 67.1232 39.9494 67.1232C40.6578 67.1232 41.3224 66.8472 41.8202 66.3486L43.4917 64.6766C43.9584 65.0499 44.526 65.2619 45.1317 65.2619C45.8401 65.2619 46.5046 64.9872 47.0026 64.4872L74.4964 36.9939C83.6084 43.4939 88.6104 54.5939 87.324 65.7872C85.3734 82.7619 69.9765 94.9926 52.9969 93.0379C42.3526 91.8152 32.9994 85.0512 28.4584 75.3526H42.4448C43.9046 75.3526 45.0921 74.1646 45.0921 72.7059C45.0921 71.2459 43.9046 70.0592 42.4448 70.0592H19.7333C18.2745 70.0592 17.0869 71.2459 17.0869 72.7059C17.0869 74.1646 18.2745 75.3526 19.7333 75.3526H22.6969C22.9229 75.9352 23.1609 76.5166 23.4177 77.0872C27.5849 86.3686 35.5 93.4139 44.9568 96.6219V98.2966H29.9942C28.5349 98.2966 27.3473 99.4846 27.3473 100.943V109.969C27.3473 111.429 28.5349 112.615 29.9942 112.615H82.6822C84.1417 112.615 85.3292 111.429 85.3292 109.969V100.943C85.3292 99.4846 84.1417 98.2966 82.6822 98.2966H67.7202V96.7739C80.9208 92.5032 90.9202 80.8539 92.5817 66.3912C94.0536 53.5832 88.4942 40.8806 78.2833 33.2072L84.5536 26.9366C85.2786 26.2112 85.4833 25.1699 85.1891 24.2552L87.4098 22.0352C87.9098 21.5352 88.186 20.8699 88.186 20.1632C88.186 19.4566 87.9104 18.7912 87.4104 18.2912L82.138 13.0206C81.6546 12.5352 80.9724 12.2579 80.2672 12.2579C79.5615 12.2579 78.8797 12.5352 78.3953 13.0192L76.176 15.2392C75.9161 15.1552 75.6458 15.1006 75.3645 15.1006H75.364C74.6562 15.1006 73.9917 15.3766 73.4937 15.8766L35.9421 53.4272C35.4426 53.9272 35.1677 54.5912 35.1677 55.2979" fill="#C1232E"/>
<path d="M162.402 22.7219V33.9219H156.442V28.0005H133.042V0.000539131H139.482V22.7219H151.962V0.000539131H158.402V22.7219H162.402" fill="#C1232E"/>
<path d="M172.121 12.0809C171.161 12.8809 170.574 13.9756 170.362 15.3609H180.961C180.748 14.0009 180.161 12.9156 179.202 12.1023C178.242 11.2876 177.068 10.8809 175.681 10.8809C174.268 10.8809 173.082 11.2809 172.121 12.0809V12.0809ZM186.721 19.0009H170.441C170.734 20.3343 171.428 21.3889 172.522 22.1623C173.614 22.9356 174.976 23.3223 176.601 23.3223C177.721 23.3223 178.714 23.1556 179.582 22.8223C180.448 22.4889 181.256 21.9609 182.001 21.2409L185.321 24.8409C183.294 27.1623 180.334 28.3223 176.441 28.3223C174.014 28.3223 171.868 27.8476 170.001 26.9009C168.134 25.9543 166.696 24.6423 165.681 22.9609C164.668 21.2809 164.161 19.3756 164.161 17.2409C164.161 15.1356 164.661 13.2356 165.661 11.5423C166.661 9.8476 168.036 8.52893 169.781 7.58093C171.528 6.63559 173.481 6.16226 175.642 6.16226C177.748 6.16226 179.654 6.61427 181.362 7.52093C183.068 8.42893 184.408 9.7276 185.381 11.4223C186.354 13.1143 186.841 15.0809 186.841 17.3223C186.841 17.4009 186.802 17.9609 186.721 19.0009" fill="#C1232E"/>
<path d="M191.642 6.48133H197.842V14.88H207.202V6.48133H213.442V28H207.202V19.96H197.842V28H191.642V6.48133" fill="#C1232E"/>
<path d="M237.482 11.6013H230.202V28H224.002V11.6013H216.722V6.48133H237.482V11.6013" fill="#C1232E"/>
<path d="M256.34 21.5804C257.366 20.5004 257.878 19.0551 257.878 17.2404C257.878 15.4284 257.366 13.9817 256.34 12.9004C255.313 11.8217 254 11.2804 252.4 11.2804C250.8 11.2804 249.485 11.8217 248.46 12.9004C247.432 13.9817 246.92 15.4284 246.92 17.2404C246.92 19.0551 247.432 20.5004 248.46 21.5804C249.485 22.6617 250.8 23.2017 252.4 23.2017C254 23.2017 255.313 22.6617 256.34 21.5804ZM258.94 7.54173C260.58 8.4604 261.866 9.75506 262.8 11.4217C263.733 13.0884 264.2 15.0284 264.2 17.2404C264.2 19.4537 263.733 21.3937 262.8 23.0604C261.866 24.7271 260.58 26.0204 258.94 26.9404C257.3 27.8604 255.48 28.3217 253.48 28.3217C250.733 28.3217 248.573 27.4537 247 25.7217V35.7617H240.76V6.48172H246.72V8.9604C248.265 7.09507 250.52 6.16172 253.48 6.16172C255.48 6.16172 257.3 6.6204 258.94 7.54173" fill="#C1232E"/>
<path d="M160.923 47.9994V75.9994H154.523V53.2794H144.923L144.723 59.1195C144.59 63.0941 144.268 66.3141 143.762 68.7794C143.256 71.2474 142.41 73.1408 141.223 74.4595C140.036 75.7795 138.375 76.4395 136.243 76.4395C135.363 76.4395 134.296 76.2928 133.042 75.9994L133.443 70.5195C133.788 70.6261 134.176 70.6794 134.602 70.6794C136.148 70.6794 137.228 69.7675 137.843 67.9395C138.456 66.1128 138.843 63.2541 139.003 59.3595L139.403 47.9994H160.923" fill="#C1232E"/>
<path d="M178.162 71.3823C178.988 70.8876 179.575 70.1609 179.923 69.2023V67.0009H175.643C173.083 67.0009 171.803 67.8409 171.803 69.5209C171.803 70.3223 172.115 70.9543 172.743 71.4223C173.37 71.8876 174.228 72.1209 175.322 72.1209C176.388 72.1209 177.335 71.8756 178.162 71.3823V71.3823ZM183.482 56.5423C185.268 58.1276 186.162 60.5209 186.162 63.7209V76.0009H180.322V73.3223C179.148 75.3223 176.963 76.3223 173.762 76.3223C172.108 76.3223 170.675 76.0423 169.463 75.4823C168.248 74.9223 167.322 74.1489 166.683 73.1609C166.042 72.1743 165.722 71.0543 165.722 69.8009C165.722 67.8009 166.476 66.2276 167.982 65.0809C169.488 63.9356 171.815 63.3609 174.963 63.3609H179.923C179.923 62.0009 179.508 60.9543 178.683 60.2209C177.856 59.4889 176.615 59.1209 174.963 59.1209C173.815 59.1209 172.688 59.3009 171.583 59.6609C170.476 60.0209 169.536 60.5076 168.762 61.1209L166.523 56.7623C167.696 55.9356 169.102 55.2956 170.743 54.8409C172.382 54.3876 174.068 54.1609 175.803 54.1609C179.136 54.1609 181.696 54.9543 183.482 56.5423" fill="#C1232E"/>
<path d="M206.423 70.0811C207.395 69.0424 207.881 67.7211 207.881 66.1211C207.881 64.4944 207.395 63.2024 206.423 62.2411C205.448 61.2811 204.161 60.8011 202.561 60.8011C200.935 60.8011 199.628 61.2811 198.641 62.2411C197.655 63.2024 197.161 64.4944 197.161 66.1211C197.161 67.7491 197.668 69.0758 198.681 70.1024C199.695 71.1278 200.987 71.6424 202.561 71.6424C204.161 71.6424 205.448 71.1211 206.423 70.0811V70.0811ZM209.441 57.2211C210.987 58.0611 212.181 59.2411 213.021 60.7624C213.861 62.2811 214.281 64.0424 214.281 66.0424C214.281 68.0958 213.781 69.9158 212.781 71.5011C211.781 73.0891 210.388 74.3158 208.601 75.1811C206.815 76.0491 204.788 76.4824 202.521 76.4824C198.761 76.4824 195.808 75.2744 193.661 72.8611C191.515 70.4478 190.441 66.9078 190.441 62.2411C190.441 57.9224 191.381 54.4758 193.261 51.9011C195.141 49.3278 198.028 47.6424 201.923 46.8411L212.161 44.8011L213.001 50.1611L203.961 51.9611C201.508 52.4411 199.688 53.2411 198.501 54.3611C197.315 55.4824 196.615 57.0678 196.401 59.1211C197.335 58.1078 198.455 57.3278 199.761 56.7811C201.068 56.2358 202.495 55.9611 204.041 55.9611C206.093 55.9611 207.895 56.3824 209.441 57.2211" fill="#C1232E"/>
<path d="M232.542 69.5809C233.568 68.5009 234.082 67.0543 234.082 65.2409C234.082 63.4289 233.568 61.9823 232.542 60.9009C231.515 59.8223 230.202 59.2809 228.602 59.2809C227.002 59.2809 225.682 59.8223 224.642 60.9009C223.602 61.9823 223.082 63.4289 223.082 65.2409C223.082 67.0543 223.602 68.5009 224.642 69.5809C225.682 70.6609 227.002 71.2023 228.602 71.2023C230.202 71.2023 231.515 70.6609 232.542 69.5809ZM222.502 74.9009C220.702 73.9543 219.295 72.6423 218.282 70.9609C217.267 69.2809 216.762 67.3756 216.762 65.2409C216.762 63.1076 217.267 61.2023 218.282 59.5209C219.295 57.8409 220.702 56.5289 222.502 55.5809C224.302 54.6356 226.335 54.1609 228.602 54.1609C230.868 54.1609 232.895 54.6356 234.682 55.5809C236.468 56.5289 237.868 57.8409 238.882 59.5209C239.895 61.2023 240.402 63.1076 240.402 65.2409C240.402 67.3756 239.895 69.2809 238.882 70.9609C237.868 72.6423 236.468 73.9543 234.682 74.9009C232.895 75.8476 230.868 76.3223 228.602 76.3223C226.335 76.3223 224.302 75.8476 222.502 74.9009Z" fill="#C1232E"/>
<path d="M260.22 69.5804C261.247 68.5004 261.759 67.0537 261.759 65.2404C261.759 63.4284 261.247 61.9817 260.22 60.9004C259.195 59.8217 257.882 59.2804 256.28 59.2804C254.682 59.2804 253.367 59.8217 252.34 60.9004C251.315 61.9817 250.802 63.4284 250.802 65.2404C250.802 67.0537 251.315 68.5004 252.34 69.5804C253.367 70.6604 254.682 71.2017 256.28 71.2017C257.882 71.2017 259.195 70.6604 260.22 69.5804ZM262.822 55.5417C264.46 56.4604 265.747 57.7551 266.682 59.4217C267.614 61.0884 268.08 63.0284 268.08 65.2404C268.08 67.4537 267.614 69.3937 266.682 71.0604C265.747 72.7271 264.46 74.0204 262.822 74.9404C261.182 75.8604 259.362 76.3217 257.362 76.3217C254.614 76.3217 252.455 75.4537 250.882 73.7204V83.7617H244.642V54.4817H250.6V56.9604C252.148 55.0951 254.4 54.1604 257.362 54.1604C259.362 54.1604 261.182 54.6204 262.822 55.5417" fill="#C1232E"/>
<path d="M282.801 71.3823C283.628 70.8876 284.213 70.1609 284.561 69.2023V67.0009H280.281C277.721 67.0009 276.44 67.8409 276.44 69.5209C276.44 70.3223 276.755 70.9543 277.38 71.4223C278.007 71.8876 278.868 72.1209 279.961 72.1209C281.028 72.1209 281.975 71.8756 282.801 71.3823V71.3823ZM288.121 56.5423C289.908 58.1276 290.801 60.5209 290.801 63.7209V76.0009H284.961V73.3223C283.787 75.3223 281.6 76.3223 278.401 76.3223C276.748 76.3223 275.315 76.0423 274.1 75.4823C272.887 74.9223 271.961 74.1489 271.32 73.1609C270.681 72.1743 270.361 71.0543 270.361 69.8009C270.361 67.8009 271.113 66.2276 272.621 65.0809C274.128 63.9356 276.455 63.3609 279.6 63.3609H284.561C284.561 62.0009 284.148 60.9543 283.32 60.2209C282.493 59.4889 281.255 59.1209 279.6 59.1209C278.455 59.1209 277.327 59.3009 276.221 59.6609C275.113 60.0209 274.175 60.5076 273.401 61.1209L271.16 56.7623C272.333 55.9356 273.741 55.2956 275.38 54.8409C277.021 54.3876 278.707 54.1609 280.44 54.1609C283.773 54.1609 286.333 54.9543 288.121 56.5423" fill="#C1232E"/>
<path d="M314.318 59.6013H307.038V76H300.84V59.6013H293.56V54.4813H314.318V59.6013" fill="#C1232E"/>
<path d="M330.78 69.5809C331.808 68.5009 332.32 67.0543 332.32 65.2409C332.32 63.4289 331.808 61.9823 330.78 60.9009C329.755 59.8223 328.44 59.2809 326.84 59.2809C325.241 59.2809 323.921 59.8223 322.88 60.9009C321.84 61.9823 321.32 63.4289 321.32 65.2409C321.32 67.0543 321.84 68.5009 322.88 69.5809C323.921 70.6609 325.241 71.2023 326.84 71.2023C328.44 71.2023 329.755 70.6609 330.78 69.5809ZM320.741 74.9009C318.94 73.9543 317.535 72.6423 316.521 70.9609C315.507 69.2809 315 67.3756 315 65.2409C315 63.1076 315.507 61.2023 316.521 59.5209C317.535 57.8409 318.94 56.5289 320.741 55.5809C322.54 54.6356 324.573 54.1609 326.84 54.1609C329.107 54.1609 331.135 54.6356 332.921 55.5809C334.707 56.5289 336.107 57.8409 337.12 59.5209C338.135 61.2023 338.641 63.1076 338.641 65.2409C338.641 67.3756 338.135 69.2809 337.12 70.9609C336.107 72.6423 334.707 73.9543 332.921 74.9009C331.135 75.8476 329.107 76.3223 326.84 76.3223C324.573 76.3223 322.54 75.8476 320.741 74.9009Z" fill="#C1232E"/>
<path d="M358.46 69.5804C359.486 68.5004 359.999 67.0537 359.999 65.2404C359.999 63.4284 359.486 61.9817 358.46 60.9004C357.432 59.8217 356.12 59.2804 354.52 59.2804C352.92 59.2804 351.606 59.8217 350.58 60.9004C349.552 61.9817 349.039 63.4284 349.039 65.2404C349.039 67.0537 349.552 68.5004 350.58 69.5804C351.606 70.6604 352.92 71.2017 354.52 71.2017C356.12 71.2017 357.432 70.6604 358.46 69.5804ZM361.06 55.5417C362.7 56.4604 363.986 57.7551 364.92 59.4217C365.854 61.0884 366.319 63.0284 366.319 65.2404C366.319 67.4537 365.854 69.3937 364.92 71.0604C363.986 72.7271 362.7 74.0204 361.06 74.9404C359.42 75.8604 357.599 76.3217 355.599 76.3217C352.854 76.3217 350.694 75.4537 349.12 73.7204V83.7617H342.879V54.4817H348.84V56.9604C350.386 55.0951 352.64 54.1604 355.599 54.1604C357.599 54.1604 359.42 54.6204 361.06 55.5417" fill="#C1232E"/>
<path d="M370.679 54.4813H376.879V62.8813H386.239V54.4813H392.479V76H386.239V67.96H376.879V76H370.679V54.4813" fill="#C1232E"/>
<path d="M420.598 54.481H426.798V75.9997H420.598V54.481ZM411.118 70.8397C411.758 70.3077 412.08 69.5063 412.08 68.4397C412.08 67.3997 411.765 66.641 411.14 66.1597C410.512 65.6797 409.585 65.4277 408.36 65.3997L404.64 65.3597V71.601H408.36C409.558 71.6263 410.48 71.3743 411.118 70.8397ZM416.118 63.2397C417.558 64.4677 418.278 66.2263 418.278 68.5197C418.278 70.921 417.465 72.773 415.838 74.0797C414.212 75.3863 411.905 76.041 408.92 76.041L398.438 75.9997V54.481H404.64V61.3597H409.758C412.558 61.3864 414.678 62.0143 416.118 63.2397" fill="#C1232E"/>
<path d="M446.318 76L441.598 69.4L436.719 76H429.919L438.199 65.16L430.199 54.4813H437.199L441.759 60.7613L446.439 54.4813H453.079L445.079 65L453.399 76H446.318" fill="#C1232E"/>
<path d="M133.042 96H139.482V114.24L152.842 96H158.923V124H152.523V105.8L139.162 124H133.042V96" fill="#C1232E"/>
<path d="M169.461 122.901C167.635 121.954 166.207 120.642 165.181 118.961C164.155 117.281 163.643 115.376 163.643 113.241C163.643 111.108 164.155 109.202 165.181 107.521C166.207 105.841 167.635 104.529 169.461 103.581C171.288 102.636 173.348 102.161 175.643 102.161C177.908 102.161 179.888 102.636 181.581 103.581C183.275 104.529 184.508 105.882 185.281 107.642L180.441 110.241C179.321 108.269 177.707 107.281 175.601 107.281C173.975 107.281 172.628 107.816 171.561 108.882C170.495 109.948 169.961 111.401 169.961 113.241C169.961 115.081 170.495 116.536 171.561 117.602C172.628 118.668 173.975 119.202 175.601 119.202C177.735 119.202 179.348 118.216 180.441 116.241L185.281 118.882C184.508 120.589 183.275 121.922 181.581 122.882C179.888 123.841 177.908 124.322 175.643 124.322C173.348 124.322 171.288 123.848 169.461 122.901" fill="#C1232E"/>
<path d="M192.862 122.901C191.036 121.954 189.608 120.642 188.582 118.961C187.554 117.281 187.041 115.376 187.041 113.241C187.041 111.108 187.554 109.202 188.582 107.521C189.608 105.841 191.036 104.529 192.862 103.581C194.688 102.636 196.748 102.161 199.041 102.161C201.309 102.161 203.288 102.636 204.981 103.581C206.674 104.529 207.908 105.882 208.682 107.642L203.841 110.241C202.721 108.269 201.108 107.281 199.001 107.281C197.374 107.281 196.029 107.816 194.962 108.882C193.894 109.948 193.362 111.401 193.362 113.241C193.362 115.081 193.894 116.536 194.962 117.602C196.029 118.668 197.374 119.202 199.001 119.202C201.136 119.202 202.748 118.216 203.841 116.241L208.682 118.882C207.908 120.589 206.674 121.922 204.981 122.882C203.288 123.841 201.309 124.322 199.041 124.322C196.748 124.322 194.688 123.848 192.862 122.901" fill="#C1232E"/>
<path d="M232.803 102.481V123.999H226.561V107.601H219.761L219.561 111.399C219.455 114.226 219.188 116.574 218.761 118.439C218.335 120.307 217.643 121.773 216.683 122.839C215.721 123.906 214.388 124.439 212.683 124.439C211.775 124.439 210.696 124.279 209.441 123.959L209.761 118.839C210.188 118.893 210.495 118.921 210.683 118.921C211.615 118.921 212.315 118.579 212.781 117.899C213.248 117.219 213.561 116.354 213.721 115.299C213.881 114.247 214.001 112.854 214.083 111.119L214.403 102.481H232.803" fill="#C1232E"/>
<path d="M245.001 108.081C244.04 108.882 243.453 109.976 243.241 111.361H253.841C253.628 110.001 253.04 108.916 252.081 108.102C251.121 107.288 249.946 106.882 248.561 106.882C247.148 106.882 245.961 107.281 245.001 108.081V108.081ZM259.6 115.001H243.32C243.614 116.334 244.308 117.388 245.401 118.161C246.493 118.936 247.854 119.322 249.481 119.322C250.6 119.322 251.593 119.156 252.461 118.822C253.326 118.489 254.134 117.961 254.88 117.241L258.201 120.841C256.174 123.161 253.213 124.322 249.32 124.322C246.894 124.322 244.748 123.848 242.88 122.901C241.014 121.954 239.574 120.642 238.561 118.961C237.546 117.281 237.041 115.376 237.041 113.241C237.041 111.136 237.541 109.236 238.541 107.542C239.541 105.848 240.914 104.529 242.661 103.581C244.408 102.636 246.361 102.161 248.521 102.161C250.628 102.161 252.534 102.614 254.241 103.521C255.946 104.429 257.286 105.728 258.26 107.422C259.234 109.114 259.721 111.081 259.721 113.322C259.721 113.401 259.681 113.961 259.6 115.001" fill="#C1232E"/>
<path d="M271.461 115.719C271.206 117.106 270.733 118.159 270.04 118.881H279.12V107.601H272.081L271.961 110.359C271.88 112.547 271.713 114.333 271.461 115.719V115.719ZM288.44 118.881V128.641H282.641V123.999H267.521V128.641H261.72V118.881H262.6C263.933 118.854 264.853 118.066 265.361 116.519C265.868 114.974 266.186 112.773 266.32 109.921L266.6 102.481H285.361V118.881H288.44Z" fill="#C1232E"/>
<path d="M306.38 117.581C307.408 116.501 307.921 115.054 307.921 113.241C307.921 111.429 307.408 109.982 306.38 108.901C305.354 107.822 304.04 107.281 302.44 107.281C300.841 107.281 299.521 107.822 298.481 108.901C297.44 109.982 296.921 111.429 296.921 113.241C296.921 115.054 297.44 116.501 298.481 117.581C299.521 118.661 300.841 119.202 302.44 119.202C304.04 119.202 305.354 118.661 306.38 117.581ZM296.341 122.901C294.54 121.954 293.134 120.642 292.121 118.961C291.106 117.281 290.6 115.376 290.6 113.241C290.6 111.108 291.106 109.202 292.121 107.521C293.134 105.841 294.54 104.529 296.341 103.581C298.141 102.636 300.173 102.161 302.44 102.161C304.706 102.161 306.734 102.636 308.521 103.581C310.308 104.529 311.706 105.841 312.72 107.521C313.734 109.202 314.241 111.108 314.241 113.241C314.241 115.376 313.734 117.281 312.72 118.961C311.706 120.642 310.308 121.954 308.521 122.901C306.734 123.848 304.706 124.322 302.44 124.322C300.173 124.322 298.141 123.848 296.341 122.901Z" fill="#C1232E"/>
<path d="M332.92 117.4C332.92 116.575 332.652 115.968 332.12 115.58C331.586 115.195 330.746 115 329.598 115H324.24V119.761H329.48C331.772 119.761 332.92 118.975 332.92 117.4V117.4ZM324.24 111.321H328.96C331.146 111.321 332.24 110.548 332.24 109C332.24 107.481 331.146 106.72 328.96 106.72H324.24V111.321ZM338.758 117.881C338.758 119.827 338.026 121.333 336.56 122.4C335.092 123.468 332.906 124 330 124H318.52V102.481H329.52C332.212 102.481 334.318 102.968 335.84 103.94C337.36 104.915 338.12 106.28 338.12 108.041C338.12 109.107 337.846 110.048 337.3 110.86C336.753 111.673 335.973 112.308 334.96 112.761C337.492 113.613 338.758 115.321 338.758 117.881" fill="#C1232E"/>
<path d="M354.12 119.382C354.946 118.888 355.533 118.161 355.88 117.202V115.001H351.6C349.04 115.001 347.758 115.841 347.758 117.521C347.758 118.322 348.073 118.954 348.7 119.422C349.325 119.888 350.186 120.121 351.28 120.121C352.346 120.121 353.293 119.876 354.12 119.382V119.382ZM359.44 104.542C361.226 106.128 362.12 108.521 362.12 111.721V124.001H356.28V121.322C355.105 123.322 352.92 124.322 349.72 124.322C348.066 124.322 346.633 124.042 345.42 123.482C344.205 122.922 343.28 122.149 342.64 121.161C342 120.174 341.68 119.054 341.68 117.801C341.68 115.801 342.432 114.228 343.94 113.081C345.446 111.936 347.773 111.361 350.92 111.361H355.88C355.88 110.001 355.466 108.954 354.64 108.221C353.813 107.489 352.573 107.121 350.92 107.121C349.773 107.121 348.646 107.301 347.54 107.661C346.432 108.021 345.493 108.508 344.72 109.121L342.48 104.762C343.652 103.936 345.06 103.296 346.7 102.841C348.34 102.388 350.026 102.161 351.758 102.161C355.092 102.161 357.652 102.954 359.44 104.542" fill="#C1232E"/>
<path d="M367.56 102.481H373.76V110.881H383.12V102.481H389.36V124H383.12V115.96H373.76V124H367.56V102.481" fill="#C1232E"/>
<path d="M395.318 102.481H401.52V115.28L411.998 102.481H417.718V124H411.52V111.201L401.08 124H395.318V102.481" fill="#C1232E"/>
<path d="M427.439 93.96H431.519C431.545 94.8933 431.805 95.62 432.299 96.1413C432.792 96.66 433.519 96.9213 434.48 96.9213C435.439 96.9213 436.179 96.66 436.7 96.1413C437.219 95.62 437.48 94.8933 437.48 93.96H441.64C441.612 98.0947 439.239 100.16 434.519 100.16C429.825 100.16 427.465 98.0947 427.439 93.96ZM423.719 102.481H429.92V115.28L440.399 102.481H446.119V124H439.92V111.201L429.48 124H423.719V102.481" fill="#C1232E"/>
<path d="M4.17188 160.223H10.9437V150.181H5.76511V151.858C5.76511 155.283 5.23385 158.071 4.17188 160.223V160.223ZM0 165.674V160.223H1.42604C2.67031 157.763 3.29115 154.331 3.29115 149.93V147.854H13.5224V160.223H15.3464L14.9907 165.674H12.851V162.53H2.51563L2.26407 165.674H0Z" fill="#167592"/>
<path d="M19.2666 156.218H24.9488C24.8639 155.368 24.5775 154.668 24.089 154.122C23.5999 153.579 22.9494 153.305 22.139 153.305C21.3707 153.305 20.7275 153.574 20.2098 154.112C19.6926 154.65 19.3786 155.353 19.2666 156.218V156.218ZM22.4322 162.781C20.8108 162.781 19.4592 162.244 18.375 161.167C17.2926 160.092 16.751 158.701 16.751 156.994C16.751 155.388 17.2614 154.025 18.2811 152.906C19.3015 151.789 20.5952 151.229 22.1598 151.229C23.8368 151.229 25.14 151.8 26.0696 152.939C26.9994 154.079 27.4644 155.494 27.4644 157.184C27.4644 157.492 27.4499 157.728 27.4223 157.897H19.2884C19.4264 158.777 19.7832 159.465 20.3562 159.961C20.9296 160.457 21.6354 160.706 22.475 160.706C23.5644 160.706 24.5635 160.267 25.4723 159.385L26.9608 160.706C25.8144 162.089 24.3056 162.781 22.4322 162.781Z" fill="#167592"/>
<path d="M30.0205 162.529V151.459H39.895V162.529H37.3585V153.64H32.557V162.529H30.0205Z" fill="#167592"/>
<path d="M49.9162 158.525V157.896C49.1615 157.602 48.3162 157.455 47.3803 157.455C46.5829 157.455 45.9621 157.609 45.5131 157.917C45.0667 158.223 44.8427 158.657 44.8427 159.216C44.8427 159.719 45.0454 160.117 45.4506 160.412C45.8569 160.705 46.3662 160.852 46.9813 160.852C47.8345 160.852 48.5365 160.635 49.0881 160.201C49.6407 159.769 49.9162 159.211 49.9162 158.525ZM52.3698 162.529H49.8537V161.165C48.9594 162.228 47.7646 162.76 46.2683 162.76C45.1641 162.76 44.2307 162.456 43.4698 161.847C42.7074 161.238 42.3271 160.389 42.3271 159.3C42.3271 158.112 42.7386 157.212 43.5641 156.596C44.3886 155.981 45.473 155.672 46.8141 155.672C47.8897 155.672 48.9099 155.826 49.8746 156.135V155.925C49.8746 155.157 49.6407 154.569 49.1725 154.162C48.7042 153.759 48.0298 153.555 47.1495 153.555C46.1433 153.555 45.0875 153.787 43.9839 154.248L43.2918 152.214C44.661 151.599 46.0667 151.292 47.5058 151.292C49.1137 151.292 50.3251 151.697 51.1427 152.508C51.9605 153.319 52.3698 154.471 52.3698 155.966V162.529Z" fill="#167592"/>
<path d="M61.0904 160.557C61.9857 160.557 62.7366 160.229 63.3434 159.572C63.9518 158.916 64.2565 158.049 64.2565 156.973C64.2565 155.926 63.9481 155.072 63.3336 154.416C62.7185 153.759 61.9705 153.431 61.0904 153.431C60.2101 153.431 59.4518 153.766 58.8153 154.438C58.1794 155.107 57.8617 155.967 57.8617 157.015C57.8617 158.049 58.1794 158.897 58.8153 159.563C59.4518 160.227 60.2101 160.557 61.0904 160.557V160.557ZM55.3877 165.883V151.459H57.9242V153.304C58.9033 151.92 60.1533 151.228 61.6768 151.228C63.0753 151.228 64.2841 151.749 65.3044 152.791C66.3248 153.831 66.8352 155.24 66.8352 157.015C66.8352 158.763 66.3248 160.157 65.3044 161.197C64.2841 162.239 63.0753 162.76 61.6768 162.76C60.1533 162.76 58.9033 162.109 57.9242 160.809V165.883H55.3877Z" fill="#167592"/>
<path d="M71.3849 162.529V153.64H67.8213V151.459H77.5062V153.64H73.9426V162.529H71.3849" fill="#167592"/>
<path d="M85.9338 158.525V157.896C85.1791 157.602 84.3333 157.455 83.3978 157.455C82.6005 157.455 81.9791 157.609 81.5306 157.917C81.0843 158.223 80.8603 158.657 80.8603 159.216C80.8603 159.719 81.0625 160.117 81.4682 160.412C81.8745 160.705 82.3838 160.852 82.9989 160.852C83.8515 160.852 84.5535 160.635 85.1057 160.201C85.6583 159.769 85.9338 159.211 85.9338 158.525ZM88.3869 162.529H85.8713V161.165C84.9765 162.228 83.7822 162.76 82.2859 162.76C81.1817 162.76 80.2483 162.456 79.4869 161.847C78.725 161.238 78.3447 160.389 78.3447 159.3C78.3447 158.112 78.7562 157.212 79.5817 156.596C80.4062 155.981 81.4895 155.672 82.8317 155.672C83.9073 155.672 84.927 155.826 85.8921 156.135V155.925C85.8921 155.157 85.6583 154.569 85.1895 154.162C84.7213 153.759 84.0469 153.555 83.1661 153.555C82.1609 153.555 81.1051 153.787 80.0015 154.248L79.3087 152.214C80.6786 151.599 82.0833 151.292 83.5229 151.292C85.1311 151.292 86.3421 151.697 87.1598 152.508C87.9781 153.319 88.3869 154.471 88.3869 155.966V162.529" fill="#167592"/>
<path d="M91.4053 162.529V151.459H93.9209L97.3798 156.596L100.86 151.459H103.376V162.529H100.818V155.15L97.3375 160.117L93.8793 155.191V162.529H91.4053" fill="#167592"/>
<path d="M108.471 156.218H114.153C114.068 155.368 113.782 154.668 113.293 154.122C112.804 153.579 112.153 153.305 111.343 153.305C110.575 153.305 109.932 153.574 109.414 154.112C108.897 154.65 108.583 155.353 108.471 156.218ZM111.637 162.781C110.015 162.781 108.663 162.244 107.58 161.167C106.497 160.092 105.955 158.701 105.955 156.994C105.955 155.388 106.465 154.025 107.486 152.906C108.506 151.789 109.799 151.229 111.364 151.229C113.041 151.229 114.344 151.8 115.274 152.939C116.203 154.079 116.669 155.494 116.669 157.184C116.669 157.492 116.654 157.728 116.626 157.897H108.493C108.631 158.777 108.987 159.465 109.56 159.961C110.134 160.457 110.84 160.706 111.679 160.706C112.769 160.706 113.768 160.267 114.676 159.385L116.165 160.706C115.019 162.089 113.51 162.781 111.637 162.781Z" fill="#167592"/>
<path d="M119.225 162.529V151.459H121.761V155.945H126.645V151.459H129.183V162.529H126.645V158.063H121.761V162.529H119.225Z" fill="#167592"/>
<path d="M134.739 162.529V153.64H131.176V151.459H140.86V153.64H137.298V162.529H134.739" fill="#167592"/>
<path d="M154.447 147.604C155.955 147.604 157.192 147.973 158.158 148.715C159.122 149.455 159.603 150.398 159.603 151.545C159.603 153.124 158.772 154.262 157.11 154.961C157.99 155.227 158.688 155.655 159.204 156.24C159.723 156.828 159.982 157.576 159.982 158.484C159.982 159.728 159.484 160.756 158.494 161.565C157.5 162.377 156.2 162.781 154.594 162.781C153.21 162.781 152.018 162.582 151.019 162.184C150.019 161.785 149.094 161.181 148.24 160.372L149.646 158.589C151.015 159.888 152.644 160.539 154.53 160.539C155.34 160.539 156.022 160.34 156.575 159.94C157.126 159.543 157.402 159.008 157.402 158.336C157.402 157.61 157.095 157.072 156.48 156.722C155.866 156.374 155.055 156.2 154.048 156.2H152.392V154.06H154.028C154.978 154.06 155.719 153.876 156.25 153.505C156.78 153.134 157.046 152.606 157.046 151.921C157.046 151.308 156.791 150.812 156.282 150.433C155.77 150.056 155.103 149.867 154.279 149.867C152.672 149.867 151.302 150.412 150.171 151.501L148.787 149.827C150.338 148.344 152.224 147.604 154.447 147.604" fill="#167592"/>
<path d="M165.221 160.347H169.897V153.639H166.249V155.106C166.249 157.161 165.905 158.909 165.221 160.347ZM161.427 165.191V160.347H162.621C163.447 158.699 163.859 156.19 163.859 152.822V151.458H172.433V160.347H174.005L173.669 165.191H171.552V162.528H163.796L163.544 165.191H161.427" fill="#167592"/>
<path d="M181.826 160.557C182.72 160.557 183.472 160.229 184.079 159.572C184.687 158.916 184.992 158.049 184.992 156.973C184.992 155.926 184.683 155.072 184.07 154.416C183.454 153.759 182.706 153.431 181.826 153.431C180.946 153.431 180.187 153.766 179.551 154.438C178.915 155.107 178.596 155.967 178.596 157.015C178.596 158.049 178.915 158.897 179.551 159.563C180.187 160.227 180.946 160.557 181.826 160.557V160.557ZM176.123 165.883V151.459H178.659V153.304C179.639 151.92 180.888 151.228 182.412 151.228C183.811 151.228 185.019 151.749 186.039 152.791C187.06 153.831 187.57 155.24 187.57 157.015C187.57 158.763 187.06 160.157 186.039 161.197C185.019 162.239 183.811 162.76 182.412 162.76C180.888 162.76 179.639 162.109 178.659 160.809V165.883H176.123Z" fill="#167592"/>
<path d="M197.006 158.525V157.896C196.25 157.602 195.404 157.455 194.468 157.455C193.671 157.455 193.05 157.609 192.602 157.917C192.155 158.223 191.931 158.657 191.931 159.216C191.931 159.719 192.134 160.117 192.539 160.412C192.946 160.705 193.454 160.852 194.07 160.852C194.923 160.852 195.624 160.635 196.176 160.201C196.73 159.769 197.006 159.211 197.006 158.525ZM199.458 162.529H196.942V161.165C196.047 162.228 194.852 162.76 193.358 162.76C192.252 162.76 191.319 162.456 190.559 161.847C189.796 161.238 189.415 160.389 189.415 159.3C189.415 158.112 189.827 157.212 190.652 156.596C191.478 155.981 192.562 155.672 193.903 155.672C194.978 155.672 195.998 155.826 196.963 156.135V155.925C196.963 155.157 196.73 154.569 196.26 154.162C195.792 153.759 195.118 153.555 194.238 153.555C193.231 153.555 192.176 153.787 191.072 154.248L190.38 152.214C191.75 151.599 193.155 151.292 194.594 151.292C196.202 151.292 197.414 151.697 198.231 152.508C199.048 153.319 199.458 154.471 199.458 155.966V162.529Z" fill="#167592"/>
<path d="M204.97 160.516H207.842C208.442 160.516 208.908 160.387 209.236 160.129C209.565 159.871 209.729 159.524 209.729 159.091C209.729 158.671 209.558 158.343 209.216 158.105C208.873 157.868 208.373 157.75 207.717 157.75H204.97V160.516ZM204.97 156.029H207.569C208.086 156.029 208.492 155.904 208.786 155.654C209.08 155.4 209.226 155.072 209.226 154.667C209.226 154.29 209.093 153.987 208.828 153.756C208.562 153.524 208.157 153.41 207.612 153.41H204.97V156.029ZM202.476 162.529V151.459H208.157C209.26 151.459 210.145 151.71 210.809 152.204C211.473 152.7 211.805 153.375 211.805 154.227C211.805 155.387 211.21 156.232 210.022 156.764C211.546 157.196 212.308 158.119 212.308 159.531C212.308 160.467 211.941 161.202 211.206 161.732C210.473 162.264 209.477 162.529 208.22 162.529H202.476" fill="#167592"/>
<path d="M220.149 160.581C221.156 160.581 221.967 160.239 222.581 159.553C223.196 158.868 223.504 158.022 223.504 157.016C223.504 156.025 223.181 155.181 222.54 154.491C221.897 153.797 221.087 153.452 220.107 153.452C219.115 153.452 218.312 153.796 217.696 154.48C217.081 155.164 216.775 156.009 216.775 157.016C216.775 157.994 217.095 158.832 217.737 159.532C218.381 160.23 219.184 160.581 220.149 160.581ZM220.107 162.781C218.431 162.781 217.032 162.222 215.915 161.105C214.796 159.988 214.237 158.624 214.237 157.016C214.237 155.409 214.803 154.044 215.935 152.917C217.067 151.792 218.473 151.229 220.149 151.229C221.827 151.229 223.228 151.789 224.353 152.906C225.479 154.025 226.04 155.394 226.04 157.016C226.04 158.608 225.475 159.969 224.343 161.094C223.211 162.218 221.797 162.781 220.107 162.781Z" fill="#167592"/>
<path d="M233.923 160.581C234.929 160.581 235.74 160.239 236.356 159.553C236.969 158.868 237.279 158.022 237.279 157.016C237.279 156.025 236.955 155.181 236.313 154.491C235.671 153.797 234.86 153.452 233.881 153.452C232.888 153.452 232.085 153.796 231.469 154.48C230.856 155.164 230.548 156.009 230.548 157.016C230.548 157.994 230.869 158.832 231.512 159.532C232.155 160.23 232.959 160.581 233.923 160.581ZM233.881 162.781C232.204 162.781 230.807 162.222 229.688 161.105C228.569 159.988 228.011 158.624 228.011 157.016C228.011 155.409 228.577 154.044 229.709 152.917C230.841 151.792 232.247 151.229 233.923 151.229C235.6 151.229 237.001 151.789 238.127 152.906C239.252 154.025 239.815 155.394 239.815 157.016C239.815 158.608 239.248 159.969 238.116 161.094C236.984 162.218 235.572 162.781 233.881 162.781Z" fill="#167592"/>
<path d="M240.799 162.529L244.865 156.91L240.945 151.459H243.713L246.271 155.107L248.829 151.459H251.532L247.612 156.847L251.7 162.529H248.933L246.208 158.651L243.504 162.529H240.799" fill="#167592"/>
<path d="M259.626 160.557C260.52 160.557 261.272 160.229 261.879 159.572C262.487 158.916 262.792 158.049 262.792 156.973C262.792 155.926 262.483 155.072 261.87 154.416C261.254 153.759 260.507 153.431 259.626 153.431C258.746 153.431 257.987 153.766 257.351 154.438C256.715 155.107 256.398 155.967 256.398 157.015C256.398 158.049 256.715 158.897 257.351 159.563C257.987 160.227 258.746 160.557 259.626 160.557V160.557ZM253.923 165.883V151.459H256.459V153.304C257.439 151.92 258.688 151.228 260.212 151.228C261.611 151.228 262.819 151.749 263.84 152.791C264.86 153.831 265.37 155.24 265.37 157.015C265.37 158.763 264.86 160.157 263.84 161.197C262.819 162.239 261.611 162.76 260.212 162.76C258.688 162.76 257.439 162.109 256.459 160.809V165.883H253.923Z" fill="#167592"/>
<path d="M274.804 158.525V157.896C274.048 157.602 273.202 157.455 272.266 157.455C271.469 157.455 270.848 157.609 270.4 157.917C269.953 158.223 269.729 158.657 269.729 159.216C269.729 159.719 269.932 160.117 270.338 160.412C270.744 160.705 271.253 160.852 271.869 160.852C272.721 160.852 273.424 160.635 273.974 160.201C274.528 159.769 274.804 159.211 274.804 158.525ZM277.257 162.529H274.741V161.165C273.845 162.228 272.65 162.76 271.156 162.76C270.05 162.76 269.118 162.456 268.357 161.847C267.594 161.238 267.213 160.389 267.213 159.3C267.213 158.112 267.625 157.212 268.45 156.596C269.276 155.981 270.36 155.672 271.701 155.672C272.776 155.672 273.796 155.826 274.761 156.135V155.925C274.761 155.157 274.528 154.569 274.06 154.162C273.59 153.759 272.916 153.555 272.036 153.555C271.03 153.555 269.974 153.787 268.87 154.248L268.178 152.214C269.548 151.599 270.953 151.292 272.392 151.292C274 151.292 275.212 151.697 276.029 152.508C276.846 153.319 277.257 154.471 277.257 155.966V162.529Z" fill="#167592"/>
<path d="M280.274 162.529V151.459H282.81V155.945H287.696V151.459H290.233V162.529H287.696V158.063H282.81V162.529H280.274Z" fill="#167592"/>
<path d="M295.328 156.218H301.01C300.926 155.368 300.639 154.668 300.15 154.122C299.661 153.579 299.01 153.305 298.2 153.305C297.431 153.305 296.788 153.574 296.271 154.112C295.754 154.65 295.44 155.353 295.328 156.218V156.218ZM298.494 162.781C296.871 162.781 295.52 162.244 294.436 161.167C293.354 160.092 292.812 158.701 292.812 156.994C292.812 155.388 293.323 154.025 294.343 152.906C295.363 151.789 296.656 151.229 298.22 151.229C299.898 151.229 301.202 151.8 302.131 152.939C303.06 154.079 303.526 155.494 303.526 157.184C303.526 157.492 303.511 157.728 303.483 157.897H295.35C295.489 158.777 295.844 159.465 296.418 159.961C296.991 160.457 297.696 160.706 298.536 160.706C299.626 160.706 300.624 160.267 301.534 159.385L303.022 160.706C301.875 162.089 300.367 162.781 298.494 162.781Z" fill="#167592"/>
<path d="M306.083 162.529V151.459H308.619V155.945H313.503V151.459H316.04V162.529H313.503V158.063H308.619V162.529H306.083Z" fill="#167592"/>
<path d="M319.227 162.529V151.459H321.701V158.881C324.02 155.583 325.768 153.108 326.941 151.459H329.332V162.529H326.879V155.15L321.617 162.529H319.227Z" fill="#167592"/>
<path d="M336.712 156.89H339.373V153.514H336.69C336.02 153.514 335.492 153.664 335.108 153.966C334.724 154.266 334.532 154.675 334.532 155.191C334.532 155.722 334.73 156.138 335.129 156.439C335.528 156.739 336.054 156.89 336.712 156.89ZM331.512 162.529L334.573 158.379C333.79 158.142 333.165 157.739 332.697 157.172C332.229 156.605 331.994 155.904 331.994 155.066C331.994 153.975 332.378 153.103 333.148 152.445C333.916 151.788 334.985 151.459 336.356 151.459H341.912V162.529H339.373V158.798H337.11L334.489 162.529H331.512" fill="#167592"/>
<path d="M351.386 162.529V151.459H359.228V153.64H353.923V162.529H351.386Z" fill="#167592"/>
<path d="M359.186 162.529V159.657H361.974V162.529H359.186Z" fill="#167592"/>
<path d="M371.574 162.529V147.854H374.321L378.786 154.792L383.252 147.854H385.998V162.529H383.42V152.004L378.786 158.924H378.702L374.112 152.047V162.529H371.574" fill="#167592"/>
<path d="M394.782 160.581C395.789 160.581 396.6 160.239 397.214 159.553C397.829 158.868 398.137 158.022 398.137 157.016C398.137 156.025 397.814 155.181 397.173 154.491C396.529 153.797 395.718 153.452 394.74 153.452C393.748 153.452 392.944 153.796 392.329 154.48C391.714 155.164 391.408 156.009 391.408 157.016C391.408 157.994 391.728 158.832 392.37 159.532C393.014 160.23 393.817 160.581 394.782 160.581ZM394.74 162.781C393.064 162.781 391.665 162.222 390.548 161.105C389.429 159.988 388.869 158.624 388.869 157.016C388.869 155.409 389.436 154.044 390.568 152.917C391.701 151.792 393.105 151.229 394.782 151.229C396.46 151.229 397.86 151.789 398.986 152.906C400.112 154.025 400.674 155.394 400.674 157.016C400.674 158.608 400.108 159.969 398.976 161.094C397.844 162.218 396.43 162.781 394.74 162.781Z" fill="#167592"/>
<path d="M408.368 162.781C406.732 162.781 405.369 162.225 404.28 161.115C403.189 160.003 402.644 158.652 402.644 157.057V157.016C402.644 155.422 403.193 154.06 404.29 152.929C405.388 151.796 406.753 151.229 408.389 151.229C410.177 151.229 411.652 151.867 412.812 153.139L411.238 154.836C410.358 153.913 409.401 153.452 408.368 153.452C407.458 153.452 406.701 153.796 406.093 154.48C405.485 155.164 405.181 155.994 405.181 156.974V157.016C405.181 158.022 405.492 158.868 406.113 159.553C406.734 160.239 407.529 160.581 408.493 160.581C409.513 160.581 410.47 160.118 411.365 159.197L412.897 160.706C412.296 161.377 411.641 161.891 410.936 162.248C410.23 162.604 409.373 162.781 408.368 162.781" fill="#167592"/>
<path d="M415.119 162.529V151.459H417.635V156.764L422.456 151.459H425.434L421.135 156.114L425.79 162.529H422.791L419.438 157.959L417.635 159.867V162.529H415.119Z" fill="#167592"/>
<path d="M430.045 160.516H432.917C433.517 160.516 433.983 160.387 434.312 160.129C434.64 159.871 434.804 159.524 434.804 159.091C434.804 158.671 434.633 158.343 434.291 158.105C433.948 157.868 433.448 157.75 432.792 157.75H430.045V160.516ZM430.045 156.029H432.645C433.161 156.029 433.567 155.904 433.861 155.654C434.155 155.4 434.301 155.072 434.301 154.667C434.301 154.29 434.168 153.987 433.903 153.756C433.637 153.524 433.232 153.41 432.687 153.41H430.045V156.029ZM427.551 162.529V151.459H433.232C434.336 151.459 435.22 151.71 435.884 152.204C436.548 152.7 436.88 153.375 436.88 154.227C436.88 155.387 436.285 156.232 435.097 156.764C436.621 157.196 437.383 158.119 437.383 159.531C437.383 160.467 437.016 161.202 436.283 161.732C435.548 162.264 434.552 162.529 433.295 162.529H427.551" fill="#167592"/>
<path d="M450.863 162.529V151.459H453.399V162.529H450.863ZM442.455 160.475H444.636C445.279 160.475 445.776 160.335 446.124 160.055C446.475 159.776 446.648 159.371 446.648 158.839C446.648 158.35 446.471 157.974 446.115 157.708C445.758 157.442 445.251 157.308 444.594 157.308H442.455V160.475ZM439.919 162.529V151.459H442.455V155.338H444.784C446.096 155.338 447.158 155.632 447.97 156.217C448.78 156.805 449.186 157.679 449.186 158.839C449.186 159.987 448.808 160.886 448.054 161.544C447.299 162.2 446.272 162.529 444.971 162.529H439.919" fill="#167592"/>
</svg>
